<?xml version="1.0" encoding="UTF-8" standalone="no"?>
<!-- Created with Inkscape (http://www.inkscape.org/) -->

<svg
   width="124.02764mm"
   height="124.3522mm"
   viewBox="0 0 124.02764 124.3522"
   version="1.1"
   id="svg5"
   xml:space="preserve"
   inkscape:version="1.2.2 (732a01da63, 2022-12-09)"
   sodipodi:docname="desenho-1.svg"
   xmlns:inkscape="http://www.inkscape.org/namespaces/inkscape"
   xmlns:sodipodi="http://sodipodi.sourceforge.net/DTD/sodipodi-0.dtd"
   xmlns="http://www.w3.org/2000/svg"
   xmlns:svg="http://www.w3.org/2000/svg"><sodipodi:namedview
     id="namedview7"
     pagecolor="#ffffff"
     bordercolor="#999999"
     borderopacity="1"
     inkscape:showpageshadow="0"
     inkscape:pageopacity="0"
     inkscape:pagecheckerboard="0"
     inkscape:deskcolor="#d1d1d1"
     inkscape:document-units="mm"
     showgrid="false"
     inkscape:zoom="1"
     inkscape:cx="531.5"
     inkscape:cy="318.5"
     inkscape:window-width="1920"
     inkscape:window-height="991"
     inkscape:window-x="-9"
     inkscape:window-y="-9"
     inkscape:window-maximized="1"
     inkscape:current-layer="layer1" /><defs
     id="defs2" /><g
     inkscape:label="Camada 1"
     inkscape:groupmode="layer"
     id="layer1"
     transform="translate(-1.6198103,-2.407562)"><path
       style="fill:#000000;stroke-width:0.264583"
       d="m 59.550952,126.66255 c -12.559357,-0.65711 -24.926675,-5.59644 -35.655325,-14.24022 -1.493081,-1.20294 -2.646915,-2.29683 -2.564072,-2.43087 0.194028,-0.31395 84.437645,-0.32884 84.631625,-0.0149 0.17286,0.27968 -3.09473,3.05729 -6.354785,5.40189 -11.346674,8.16038 -25.195931,12.06171 -40.057443,11.28415 z M 37.215029,102.00868 c -0.213236,-0.32742 -0.886232,-2.024065 -1.495547,-3.770314 -0.609317,-1.74625 -1.334182,-3.62384 -1.610815,-4.17241 -0.440396,-0.87333 -0.452593,-1.01673 -0.09805,-1.15278 0.827257,-0.31745 1.168117,0.20566 2.250612,3.45394 0.64978,1.94982 1.248754,3.326459 1.447337,3.326459 0.193702,0 0.875364,-1.473009 1.591731,-3.439589 1.03887,-2.85191 1.343726,-3.43958 1.784273,-3.43958 0.314021,0 0.481216,0.13527 0.4088,0.33073 -0.06739,0.1819 -0.882915,2.38456 -1.812282,4.89479 -0.929365,2.510244 -1.77719,4.564064 -1.884056,4.564064 -0.106865,0 -0.368765,-0.26789 -0.582001,-0.59531 z m -9.354039,-4.365624 0.07225,-4.69636 2.204341,-0.0772 c 1.998499,-0.07 2.195939,-0.0329 2.114373,0.39687 -0.06957,0.36658 -0.419402,0.50407 -1.542883,0.60636 l -1.452915,0.1323 -0.0823,1.29731 c -0.0945,1.48972 0.131691,1.73533 1.603652,1.74134 1.403911,0.006 1.327851,0.68311 -0.09818,0.87438 -1.330447,0.17845 -1.531398,0.36385 -1.731619,1.597659 -0.20456,1.260565 0.227164,1.765355 1.509829,1.765355 1.261473,0 1.841325,0.21721 1.841325,0.68976 0,0.28621 -0.503928,0.36857 -2.255062,0.36857 h -2.255065 z m 15.66754,4.355464 c -0.07195,-0.18748 -0.09798,-2.300845 -0.05784,-4.696354 l 0.07297,-4.35547 2.204341,-0.0772 c 1.998499,-0.07 2.195939,-0.0329 2.114373,0.39687 -0.06957,0.36658 -0.419402,0.50407 -1.542883,0.60636 l -1.452915,0.1323 v 1.4552 1.45521 l 1.256771,0.0806 c 0.882364,0.0566 1.256771,0.19456 1.256771,0.46303 0,0.27521 -0.324596,0.38237 -1.158229,0.38237 -1.46485,0 -1.804985,0.40583 -1.701377,2.029969 l 0.08148,1.277335 1.058333,0.0705 c 1.651098,0.11002 2.248959,0.30362 2.248959,0.72827 0,0.5293 -4.178541,0.5779 -4.380751,0.0509 z m 7.187183,-0.0776 c -0.254119,-0.66222 -0.186645,-9.106494 0.07277,-9.106494 0.12835,0 1.455399,1.39898 2.948998,3.10885 1.493591,1.70987 2.889931,3.14987 3.102971,3.2 0.32741,0.077 0.37262,-0.3938 0.29215,-3.04271 -0.0908,-2.98919 -0.0708,-3.13385 0.43397,-3.13385 0.50658,0 0.53225,0.20047 0.60142,4.69636 0.0446,2.897014 -0.0258,4.696354 -0.18357,4.696354 -0.14069,0 -1.54242,-1.48063 -3.11495,-3.290294 -1.57253,-1.80966 -2.948443,-3.29794 -3.057583,-3.30729 -0.109141,-0.009 -0.198438,1.47128 -0.198438,3.29029 0,2.650534 -0.07319,3.307294 -0.368567,3.307294 -0.202713,0 -0.440838,-0.18833 -0.529167,-0.41851 z m 12.215389,-3.748684 -0.0729,-4.16718 -1.53812,-0.0799 c -1.28093,-0.0665 -1.52364,-0.15498 -1.45158,-0.52917 0.0763,-0.39621 0.50826,-0.44932 3.65478,-0.44932 2.995392,0 3.568252,0.0637 3.568252,0.39688 0,0.28863 -0.39688,0.43295 -1.45521,0.52916 l -1.455212,0.1323 -0.0729,4.16718 c -0.0687,3.929694 -0.10226,4.167194 -0.58859,4.167194 -0.48634,0 -0.51989,-0.2375 -0.5886,-4.167194 z m 6.262012,3.826304 c -0.072,-0.18748 -0.098,-2.300845 -0.0578,-4.696354 l 0.073,-4.35547 1.78705,0.0211 c 1.4901,0.0176 1.89611,0.12353 2.44335,0.63763 0.91651,0.86102 1.10177,2.12124 0.49324,3.35528 -0.37866,0.76788 -0.79178,1.11693 -1.81424,1.53286 -1.9057,0.775229 -1.92847,0.800869 -2.12762,2.394824 -0.17235,1.37942 -0.51201,1.85259 -0.79691,1.11015 z m 2.87679,-4.464834 c 1.93999,-1.03324 1.45118,-3.36723 -0.79946,-3.81736 -0.65821,-0.13164 -0.88059,-0.0565 -1.11176,0.37541 -0.31115,0.58139 -0.39078,2.64746 -0.12839,3.33124 0.18872,0.49177 1.21912,0.5477 2.03961,0.11071 z m 4.806697,4.210414 c -0.0808,-0.32742 -0.11284,-2.440785 -0.0712,-4.696364 0.072,-3.8994 0.10175,-4.10104 0.6049,-4.10104 0.50351,0 0.53269,0.20063 0.60188,4.13805 0.0832,4.733894 -0.0918,4.450464 2.75232,4.457304 l 1.50213,0.004 0.78228,-2.050525 c 0.43026,-1.127789 0.87242,-2.348179 0.98258,-2.711979 0.19226,-0.63492 1.87553,-4.21929 2.07522,-4.41898 0.0532,-0.0532 0.8965,2.11975 1.87395,4.82882 0.97746,2.709069 1.71664,4.986144 1.64263,5.060164 -0.35712,0.35711 -1.22598,-0.30494 -1.58818,-1.21016 -0.34704,-0.86733 -0.54973,-1.03502 -1.41908,-1.174045 -1.9451,-0.31103 -2.84844,0.273335 -3.61448,2.338165 -0.0642,0.17298 -0.27041,0.16659 -0.59575,-0.0185 -0.27396,-0.15585 -0.79486,-0.19743 -1.15904,-0.0925 -0.3638,0.10479 -1.46286,0.2024 -2.44236,0.2169 -1.63744,0.0242 -1.79273,-0.0216 -1.92782,-0.56894 z m 10.25508,-2.996544 c 0.21854,-0.21853 -0.99346,-3.69314 -1.26937,-3.6391 -0.31948,0.0626 -1.48265,3.24458 -1.29627,3.54615 0.16386,0.26514 2.3155,0.34309 2.56564,0.093 z m 4.61938,3.424614 c -0.2937,-0.29371 -0.2239,-9.357764 0.0721,-9.357764 0.14168,0 1.60019,1.49762 3.24114,3.32804 l 2.98355,3.328039 0.13229,-3.258909 c 0.11494,-2.83148 0.19302,-3.27053 0.59531,-3.34745 0.42731,-0.0817 0.46302,0.28433 0.46302,4.74528 v 4.833804 l -0.95061,-0.91179 c -0.52283,-0.50149 -1.90719,-2.010805 -3.07634,-3.354024 -1.16916,-1.34323 -2.2358,-2.3742 -2.37032,-2.29106 -0.13452,0.0831 -0.2238,1.53932 -0.1984,3.23597 0.0371,2.481444 -0.0274,3.099544 -0.33,3.160104 -0.20689,0.0414 -0.45966,-0.008 -0.56171,-0.11024 z M 4.8545119,84.548086 c -0.390179,-0.49877 -1.850148,-6.08717 -2.298813,-8.79929 C -0.02536705,60.146626 2.7651399,44.969527 10.519854,32.433107 21.449276,14.764387 38.869146,4.2251477 59.931552,2.5383877 c 6.256532,-0.50105 14.275042,0.45453 21.546879,2.56777 18.087324,5.2562893 33.257579,19.2542093 40.113979,37.0140493 1.36431,3.53393 2.81678,8.823579 3.45821,12.594219 0.66713,3.92178 0.80253,12.7946 0.26596,17.42849 -0.44222,3.81909 -2.22266,11.64776 -2.80992,12.35537 -0.2666,0.32122 -2.8723,0.37864 -17.18279,0.37864 -13.235739,0 -16.928079,-0.0717 -17.144989,-0.33309 -0.15204,-0.18319 -1.05926,-2.56142 -2.01605,-5.28495 l -1.73961,-4.95187 0.78812,-1.13119 c 1.29091,-1.85285 1.68578,-3.98542 1.50771,-8.14265 -0.22546,-5.26362 -1.33729,-9.39952 -4.70916,-17.517639 -2.1819,-5.25316 -3.36723,-7.56887 -3.97258,-7.761 -0.70806,-0.22473 -12.388737,4.03687 -12.604277,4.59857 -0.206155,0.53723 0.28901,2.79795 1.65054,7.535789 1.96823,6.84897 4.35468,12.37647 7.17518,16.61911 2.256897,3.39486 4.578577,5.32663 7.562177,6.29217 0.66131,0.21401 1.05434,0.54199 1.23225,1.0283 1.78086,4.868 3.22068,8.86855 3.22068,8.9487 0,0.0549 -10.00125,0.0998 -22.224999,0.0998 -17.607077,0 -22.223646,-0.0687 -22.218497,-0.33073 0.0036,-0.1819 0.766553,-2.35479 1.695503,-4.82864 1.315196,-3.50246 1.826128,-4.56655 2.308603,-4.80799 0.340781,-0.17054 1.413949,-0.67943 2.384822,-1.13086 4.129455,-1.92011 8.493869,-8.86123 11.737619,-18.66741 2.62289,-7.929249 3.18974,-10.566249 2.41038,-11.213059 -0.19726,-0.16372 -2.19156,-0.96102 -4.43177,-1.7718 -7.608884,-2.75379 -7.696111,-2.78021 -8.093193,-2.45066 -0.201237,0.16701 -1.028091,1.68427 -1.837457,3.37167 -3.934994,8.203899 -5.811541,14.075639 -6.728253,21.052789 -0.459254,3.49541 -0.20269,5.4016 1.071996,7.96456 0.584512,1.17525 1.062749,2.32789 1.062749,2.56142 0,0.43517 -3.002833,9.00636 -3.405846,9.72154 -0.194617,0.34537 -2.473375,0.40571 -17.557223,0.46492 -13.6701161,0.0537 -17.3885751,-0.002 -17.5937831,-0.26459 z M 60.205212,38.851077 c 0.34316,-0.55526 -1.86339,-4.57233 -2.68467,-4.88749 -0.46056,-0.17673 -1.14459,0.26944 -1.14459,0.74658 0,0.16713 0.53868,1.22412 1.19708,2.34886 0.9693,1.65585 1.31876,2.04499 1.83647,2.04499 0.35166,0 0.70973,-0.11382 0.79571,-0.25294 z m 10.411492,-1.40071 c 1.3647,-2.10174 1.69228,-2.94499 1.29742,-3.33984 -0.16399,-0.164 -0.44237,-0.29818 -0.61861,-0.29818 -0.82193,0 -3.24929,4.03051 -2.9294,4.86412 0.3431,0.89411 1.16444,0.44665 2.25059,-1.2261 z m -5.827015,1.07156 c 0.20328,-0.20327 0.3175,-1.24019 0.3175,-2.8821 0,-2.03558 -0.0819,-2.59603 -0.39687,-2.71691 -0.623417,-0.23923 -1.180197,0.0943 -1.361187,0.81543 -0.18731,0.74632 0.0383,4.40841 0.2974,4.82767 0.22628,0.36613 0.75328,0.3458 1.143157,-0.0441 z M 44.379287,72.375136 c -1.270331,-1.27034 -1.795034,-5.18249 -1.239909,-9.24468 0.287795,-2.10597 1.905796,-8.55055 2.227503,-8.87226 0.06043,-0.0604 0.567894,0.12046 1.127696,0.40198 1.576925,0.79301 2.78248,0.9105 4.723609,0.46032 0.96306,-0.22335 2.19011,-0.40565 2.726783,-0.4051 1.126613,0.001 2.474293,0.73827 3.102413,1.69689 0.40413,0.61678 0.40421,0.75928 10e-4,1.97256 -0.2389,0.71927 -1.19357,2.83681 -2.121483,4.70564 -3.535455,7.12048 -8.415973,11.41651 -10.54784,9.28465 z m 36.469844,0.22855 c -1.3426,-0.58512 -3.7665,-3.01914 -5.29657,-5.31869 -1.791547,-2.69253 -4.889117,-9.13874 -4.889117,-10.17452 0,-0.92055 1.13991,-1.97614 2.60941,-2.41641 0.83428,-0.24996 1.323517,-0.2077 2.981507,0.25753 2.47544,0.69461 2.65323,0.69033 4.59554,-0.11069 1.9656,-0.81063 1.91518,-0.86311 3.00642,3.12972 1.3859,5.07098 1.65781,10.42914 0.65361,12.87975 -0.80998,1.97663 -1.92404,2.5102 -3.6608,1.75331 z M 57.184232,54.063666 c -1.45227,-1.07144 -3.309081,-1.35126 -5.573446,-0.8399 -2.371321,0.53551 -3.249406,0.54286 -4.230661,0.0354 -1.234798,-0.63854 -1.33748,-1.08906 -0.658927,-2.89104 0.895107,-2.377079 2.966194,-7.039359 3.558035,-8.009589 l 0.516334,-0.84645 2.591753,0.88973 c 4.512352,1.54905 7.080182,2.54704 7.386432,2.87075 0.22088,0.23346 0.0337,1.22707 -0.73207,3.88555 -0.56586,1.964529 -1.15048,4.018359 -1.29915,4.564059 -0.14868,0.54571 -0.36166,0.99219 -0.4733,0.99219 -0.11164,0 -0.59989,-0.29283 -1.085,-0.65074 z m 12.594922,0.4523 c -0.23554,-0.38383 -2.55529,-8.460189 -2.55529,-8.896399 0,-0.24282 0.26789,-0.55131 0.59531,-0.68552 2.13182,-0.87382 8.851527,-3.18422 9.261187,-3.18422 0.53513,0 2.21863,3.31744 3.87847,7.642779 0.74642,1.94507 0.81224,2.31357 0.53343,2.98668 -0.17493,0.42231 -0.53203,0.88236 -0.79354,1.02232 -0.7128,0.38147 -2.49602,0.30731 -4.14633,-0.17245 -1.9364,-0.56292 -3.477977,-0.36429 -5.126627,0.66056 -1.45785,0.90625 -1.47158,0.91147 -1.64661,0.62625 z"
       id="path302" /></g></svg>
