<?xml version="1.0" encoding="UTF-8" standalone="no"?>
<!-- Created with Inkscape (http://www.inkscape.org/) -->

<svg
   width="109.9705mm"
   height="22.418827mm"
   viewBox="0 0 109.9705 22.418827"
   version="1.1"
   id="svg5"
   xml:space="preserve"
   inkscape:version="1.2.2 (732a01da63, 2022-12-09)"
   sodipodi:docname="logoPreto.svg"
   xmlns:inkscape="http://www.inkscape.org/namespaces/inkscape"
   xmlns:sodipodi="http://sodipodi.sourceforge.net/DTD/sodipodi-0.dtd"
   xmlns="http://www.w3.org/2000/svg"
   xmlns:svg="http://www.w3.org/2000/svg"><sodipodi:namedview
     id="namedview7"
     pagecolor="#ffffff"
     bordercolor="#999999"
     borderopacity="1"
     inkscape:showpageshadow="0"
     inkscape:pageopacity="0"
     inkscape:pagecheckerboard="0"
     inkscape:deskcolor="#d1d1d1"
     inkscape:document-units="mm"
     showgrid="false"
     inkscape:zoom="1.4324916"
     inkscape:cx="325.30732"
     inkscape:cy="141.36209"
     inkscape:window-width="1920"
     inkscape:window-height="991"
     inkscape:window-x="-9"
     inkscape:window-y="-9"
     inkscape:window-maximized="1"
     inkscape:current-layer="layer1" /><defs
     id="defs2" /><g
     inkscape:label="Camada 1"
     inkscape:groupmode="layer"
     id="layer1"
     transform="translate(-0.82786768,-1.6020637)"><g
       id="g302"
       transform="translate(-24.195896,-45.805971)"><path
         style="fill:#4f4f4f;stroke-width:0.264583"
         d="m 27.130851,69.099893 c -1.747642,-0.695346 -2.829483,-1.364813 -1.541779,-0.95409 1.538524,0.490725 1.582121,0.444936 2.78352,-2.923365 1.061487,-2.976038 1.105091,-3.205818 0.695821,-3.666778 -0.764381,-0.86092 -0.526476,-4.320364 0.493845,-7.181139 0.763848,-2.141677 1.999906,-4.894791 2.1976,-4.894791 0.450437,0 4.283668,1.59774 4.356349,1.815782 0.143775,0.431325 -1.216652,4.989849 -1.955015,6.550873 -0.930945,1.968175 -2.379044,3.748283 -3.475923,4.272858 -0.882511,0.422054 -1.042942,0.69225 -2.078196,3.50007 l -1.121858,3.042708 0.902663,0.396875 c 0.496465,0.218281 0.90327,0.486172 0.904012,0.595312 0.0019,0.280705 -0.178911,0.234323 -2.161039,-0.554315 z m 4.81377,-8.479952 c 0.887634,-0.969521 2.140947,-3.198393 2.499868,-4.445725 0.238183,-0.827743 -1.039314,-1.482828 -2.22728,-1.142124 -0.520243,0.149204 -1.097981,0.144858 -1.508837,-0.01135 -0.366184,-0.139223 -0.765224,-0.191678 -0.886756,-0.116568 -0.66365,0.410159 -1.058353,5.491535 -0.506638,6.522425 0.413738,0.773077 1.483879,0.444805 2.629643,-0.80666 z m 3.309674,-6.837021 c 0.754806,-2.556368 0.859912,-2.309221 -1.309618,-3.07942 -1.076124,-0.382032 -2.016038,-0.694604 -2.088698,-0.694604 -0.07266,0 -0.507573,0.901903 -0.966472,2.004227 -1.044594,2.509228 -0.877967,2.871892 1.200197,2.612242 0.831743,-0.103919 1.581545,-0.05985 1.87456,0.11018 0.718852,0.417129 0.932085,0.259667 1.290031,-0.952625 z m 8.97532,15.825499 c 0.08302,-0.134326 0.505397,-0.322079 0.938623,-0.417232 0.433226,-0.09515 0.832117,-0.25314 0.886428,-0.351086 0.05431,-0.09794 -0.398732,-1.547299 -1.006761,-3.220788 -1.01673,-2.79837 -1.180872,-3.078695 -2.044036,-3.490836 -1.034851,-0.49412 -1.999845,-1.533485 -2.983195,-3.213105 -0.713409,-1.218547 -2.525353,-6.421796 -2.525353,-7.251904 0,-0.419676 0.445749,-0.690311 2.182813,-1.325287 l 2.182812,-0.797919 0.860764,1.684011 c 1.161854,2.273064 2.136963,5.345724 2.32737,7.333758 0.128124,1.337737 0.05861,1.825056 -0.379899,2.663332 l -0.536718,1.026008 1.137465,3.075033 c 1.029935,2.784333 1.197705,3.072599 1.774661,3.049289 0.350453,-0.01416 0.84555,-0.116197 1.100211,-0.226745 0.254662,-0.110551 0.462711,-0.09896 0.462333,0.02574 -2.65e-4,0.124712 -0.927833,0.554167 -2.061009,0.95435 -2.237039,0.790011 -2.545844,0.854448 -2.316509,0.483377 z m 0.152223,-8.500757 c 0.383413,-0.716411 0.310832,-3.413899 -0.131974,-4.904992 l -0.389208,-1.310605 -1.994757,0.01798 c -1.510644,0.01361 -2.104392,0.127611 -2.446499,0.469717 -0.425934,0.425932 -0.39724,0.561888 0.50224,2.379704 1.796966,3.631604 3.588692,4.976624 4.460198,3.3482 z M 41.384609,54.64838 c 2.303073,-0.01302 2.405375,-0.204888 1.398648,-2.623152 -0.461669,-1.108982 -0.881009,-2.016332 -0.931865,-2.016332 -0.115877,0 -3.929525,1.387234 -4.040999,1.469934 -0.08948,0.06639 0.730001,3.026842 0.93472,3.37675 0.06966,0.119061 0.322966,0.123235 0.562908,0.0093 0.239943,-0.11396 1.174406,-0.211373 2.076588,-0.216475 z m 15.602558,11.589166 c -0.394309,-0.394306 -0.149646,-1.143982 0.418049,-1.280967 0.327422,-0.07901 17.918906,-0.111041 39.092186,-0.07119 l 38.496868,0.07246 v 0.661459 0.661458 l -38.914918,0.06702 C 74.676144,66.384646 57.08466,66.335036 56.987167,66.237542 Z m 0.08732,-10.540108 v -3.571875 h 3.307292 3.307291 v 0.926042 0.926041 h -2.513541 c -2.057871,0 -2.513542,0.07195 -2.513542,0.396875 0,0.31498 0.382175,0.396875 1.852083,0.396875 h 1.852084 v 0.926042 0.926042 H 60.51407 c -1.469908,0 -1.852083,0.08189 -1.852083,0.396875 0,0.324926 0.455671,0.396875 2.513542,0.396875 h 2.513541 v 0.926041 0.926042 h -3.307291 -3.307292 z m 9.511654,0.236305 c -0.865785,-1.834563 -1.574154,-3.449815 -1.574154,-3.589449 0,-0.139633 0.319503,-0.216205 0.710006,-0.170159 0.61976,0.07308 0.850948,0.403197 1.818897,2.597261 0.609891,1.382448 1.257824,2.513542 1.439847,2.513542 0.182022,0 0.829955,-1.131094 1.439846,-2.513542 0.967949,-2.194064 1.199137,-2.524182 1.818897,-2.597261 0.390503,-0.04605 0.710006,0.03654 0.710006,0.183532 0,0.146989 -0.706591,1.762241 -1.570201,3.589449 -1.51548,3.206419 -1.598933,3.322197 -2.394596,3.322197 -0.795964,0 -0.878678,-0.115027 -2.398548,-3.33557 z m 7.950845,-0.236305 v -3.571875 h 3.307292 3.307291 v 0.926042 0.926041 h -2.513541 c -2.057871,0 -2.513542,0.07195 -2.513542,0.396875 0,0.3175 0.396875,0.396875 1.984375,0.396875 h 1.984375 v 0.926042 0.926042 h -1.984375 c -1.5875,0 -1.984375,0.07937 -1.984375,0.396875 0,0.324926 0.455671,0.396875 2.513542,0.396875 h 2.513541 v 0.926041 0.926042 h -3.307291 -3.307292 z m 8.466667,0 v -3.571875 h 0.758885 c 0.631905,0 1.063562,0.374045 2.579688,2.235378 1.001442,1.229457 1.910098,2.241488 2.019239,2.248958 0.10914,0.0075 0.198437,-0.998451 0.198437,-2.235378 v -2.248958 h 0.79375 0.79375 v 3.571875 3.571875 h -0.753139 c -0.626867,0 -1.056388,-0.377062 -2.561852,-2.248958 -0.994791,-1.236927 -1.906034,-2.248959 -2.024986,-2.248959 -0.118951,0 -0.216273,1.012032 -0.216273,2.248959 v 2.248958 h -0.79375 -0.793749 z M 94.645319,56.62348 V 53.977646 H 93.19011 91.734902 v -0.926041 -0.926042 h 3.704167 3.704166 v 0.926042 0.926041 h -1.455208 -1.455208 v 2.645834 2.645833 h -0.79375 -0.79375 z m 6.085411,-0.762665 v -3.408498 l 1.97943,-0.185487 c 3.57998,-0.335472 4.89974,0.351563 4.89974,2.550687 0,0.908106 -0.1473,1.424092 -0.51009,1.786891 -0.59665,0.596644 -2.52914,0.94682 -3.85377,0.698318 l -0.92781,-0.174058 v 1.070322 c 0,1.012859 -0.0426,1.070323 -0.79375,1.070323 h -0.79375 z m 5.15938,-1.089419 c 0,-0.632499 -0.0782,-0.664883 -1.78594,-0.739693 l -1.78594,-0.07823 v 0.817927 0.817928 l 1.78594,-0.07823 c 1.70775,-0.07481 1.78594,-0.107193 1.78594,-0.739693 z m 3.57187,0.926042 v -3.571875 h 0.79375 0.79375 v 2.645833 2.645834 h 2.51354 2.51354 v 0.926041 0.926042 h -3.30729 -3.30729 z m 7.93417,3.373437 c -0.002,-0.10914 0.73495,-1.716484 1.63729,-3.571875 1.57217,-3.232699 1.67441,-3.373313 2.45072,-3.370462 0.77654,0.0029 0.8759,0.141489 2.39761,3.345248 0.87313,1.83825 1.62719,3.444255 1.6757,3.5689 0.0485,0.124645 -0.25981,0.226627 -0.68514,0.226627 -0.56812,0 -0.8533,-0.175517 -1.07471,-0.661459 -0.28451,-0.624437 -0.41856,-0.661458 -2.39503,-0.661458 -2.01258,0 -2.10009,0.02562 -2.25967,0.661458 -0.13064,0.520498 -0.3341,0.661459 -0.95473,0.661459 -0.43379,0 -0.79021,-0.0893 -0.79204,-0.198438 z m 5.295,-2.854811 c 0,-0.35502 -1.09345,-2.238418 -1.29957,-2.238418 -0.19297,0 -1.08168,1.85214 -1.08168,2.254313 0,0.06981 0.53578,0.126937 1.19062,0.126937 0.65485,0 1.19063,-0.06427 1.19063,-0.142832 z m 4.23333,-0.518626 v -3.571875 l 0.8599,0.006 c 0.75587,0.0053 1.0813,0.277317 2.69026,2.248958 1.00671,1.233628 1.92944,2.242961 2.05052,2.242961 0.12109,0 0.22015,-1.012032 0.22015,-2.248959 v -2.248958 h 0.79375 0.79375 v 3.571875 3.571875 h -0.77891 c -0.65826,0 -1.05787,-0.345675 -2.57969,-2.231547 -0.99042,-1.22735 -1.9496,-2.239382 -2.1315,-2.248958 -0.24001,-0.01264 -0.33073,0.599483 -0.33073,2.231547 v 2.248958 h -0.79375 -0.79375 z M 38.553655,49.069716 c 0,-0.328046 0.842761,-1.745835 0.965059,-1.623536 0.141976,0.141975 -0.630205,1.768967 -0.839562,1.768967 -0.06902,0 -0.125497,-0.06544 -0.125497,-0.145431 z m -3.96875,-0.648319 c -0.169101,-0.315968 -0.247925,-0.634019 -0.175165,-0.70678 0.07276,-0.07276 0.270647,0.126228 0.439748,0.442197 0.169101,0.315968 0.247925,0.634018 0.175165,0.706779 -0.07276,0.07276 -0.270647,-0.126228 -0.439748,-0.442196 z m 2.183389,-0.396875 c 0.0029,-0.582083 0.05712,-0.789054 0.120407,-0.459936 0.06329,0.329119 0.06088,0.805369 -0.0053,1.058333 -0.06622,0.252965 -0.118004,-0.01631 -0.115067,-0.598397 z"
         id="path308" /></g></g></svg>
